<?xml version="1.0" encoding="UTF-8"?>
<!-- Generated by Pixelmator Pro 4.0 -->
<svg width="1240" height="1240" viewBox="0 0 1240 1240" xmlns="http://www.w3.org/2000/svg">
    <path id="path1" fill="oklch(0.922 0 0)" stroke="none" d="M 683.039063 186.144531 C 705.010498 186.144531 719.798767 204.735474 727.404297 241.917969 C 726.559265 237.903931 726.347961 237.587036 726.770508 240.967285 L 729.939453 259.664063 L 767.966797 301.494141 C 774.938538 308.465881 786.769104 312.691101 803.458984 314.169922 C 803.458984 316.705078 799.656311 326.845642 792.050781 344.591797 L 789.515625 361.070313 C 789.515625 362.760437 790.360657 365.295532 792.050781 368.675781 C 792.050781 380.506592 786.98053 387.689453 776.839844 390.224609 C 775.149719 391.069641 773.037109 391.492188 770.501953 391.492188 C 763.741516 388.111938 755.607971 387.583801 746.101074 389.907715 C 740.819458 391.175293 735.009827 393.393555 728.671875 396.5625 L 709.658203 401.632813 C 705.010376 401.632813 700.785156 400.365234 696.982422 397.830078 C 685.574158 395.294922 677.96875 381.774231 674.166016 357.267578 L 671.630859 339.838379 L 671.630859 339.521484 C 667.405579 336.986328 660.962097 337.197571 652.300293 340.155273 L 638.673828 345.859375 L 631.385254 350.612793 L 631.068359 350.929688 C 624.307922 361.070374 621.772766 378.921936 623.462891 404.484863 C 623.674133 408.710144 624.09668 413.252258 624.730469 418.111328 C 627.265625 437.125122 627.265625 451.068298 624.730469 459.941406 L 629.800781 513.179688 L 637.40625 541.066406 L 647.546875 556.277344 C 649.237 557.967468 652.617188 560.502563 657.6875 563.882813 L 634.871094 581.628906 C 629.800781 585.642944 627.793762 590.924438 628.850098 597.473633 L 629.800781 601.910156 C 630.857117 604.23407 632.54718 605.924133 634.871094 606.980469 C 645.01178 606.980469 650.082031 604.445313 650.082031 599.375 C 650.082031 585.43158 659.588745 575.502319 678.602539 569.586914 C 680.71521 568.953125 683.039063 568.319336 685.574219 567.685547 C 703.109131 563.671509 713.249634 560.713867 715.996094 558.8125 C 721.911499 564.727905 733.530823 567.15741 750.854492 566.101074 C 754.234741 565.889832 757.826172 565.572937 761.628906 565.150391 C 772.614624 563.460266 781.48761 564.41095 788.248047 568.002441 C 791.20575 569.481262 793.740845 571.488281 795.853516 574.023438 C 808.529358 609.515808 808.318115 645.535767 795.219727 682.084473 C 788.670532 699.830627 779.163818 717.893433 766.699219 736.273438 C 757.614868 750.428101 743.249146 767.328979 723.601563 786.976563 C 716.841125 798.173584 704.587952 814.22937 686.841797 835.144531 C 667.828003 856.693481 658.955078 876.974487 660.222656 895.988281 C 663.391602 903.59375 672.792725 906.551453 688.42627 904.861328 C 691.172729 904.650024 694.024719 904.227539 696.982422 903.59375 C 744.094299 865.35498 789.304138 820.145142 832.613281 767.962891 C 846.979248 766.272766 861.344971 773.138733 875.710938 788.561035 C 883.105164 796.58905 890.710571 807.046509 898.527344 819.933594 L 902.330078 827.539063 C 899.794922 834.2995 901.0625 841.799316 906.132813 850.038574 C 908.879272 854.263855 912.681885 858.594727 917.541016 863.03125 C 930.850708 876.340881 938.033569 887.326416 939.089844 895.988281 C 944.160156 900.213562 952.821899 901.586792 965.075195 900.10791 C 971.413086 899.474121 978.807251 898.100952 987.257813 895.988281 C 995.074585 888.171509 1002.257446 876.340942 1008.806641 860.496094 C 996.130737 847.820251 987.68042 840.214844 983.455078 837.679688 C 981.131226 826.905212 970.568115 814.6521 951.765625 800.919922 C 933.174438 786.342712 923.878906 771.554443 923.878906 756.554688 C 907.40033 753.808228 893.034546 740.710083 880.78125 717.259766 L 865.570313 628.529297 C 864.725281 621.76886 864.408386 615.325378 864.619629 609.19873 C 864.830872 606.029785 865.147766 602.755249 865.570313 599.375 C 871.063171 582.896423 882.048767 569.375732 898.527344 558.8125 C 919.86499 565.572937 942.153076 568.63623 965.39209 568.002441 C 967.082153 567.791199 968.87793 567.685547 970.779297 567.685547 C 979.652344 566.417969 989.792969 565.150391 1001.201172 563.882813 C 1031.623169 547.404236 1049.369141 532.19342 1054.439453 518.25 C 1056.129517 508.53186 1056.552124 501.771484 1055.707031 497.96875 L 1069.650391 401.632813 C 1070.495483 382.407776 1067.432129 366.985718 1060.460449 355.366211 C 1056.657715 348.817017 1051.693115 343.535522 1045.566406 339.521484 C 1043.242554 343.112976 1033.947021 346.915649 1017.679688 350.929688 L 1010.074219 356 C 1009.229126 356.845032 1008.806641 358.535156 1008.806641 361.070313 C 1004.792603 378.182678 988.736816 389.168274 960.638672 394.027344 C 951.765625 396.5625 945.85022 397.830078 942.892578 397.830078 C 937.188477 393.604797 923.245239 391.492188 901.0625 391.492188 C 882.471252 390.224609 871.908203 381.351624 869.373047 364.873047 C 860.499939 339.521362 868.105347 323.04303 892.189453 315.4375 L 941.625 301.494141 C 952.188232 296.212524 959.793579 289.452148 964.441406 281.212891 L 984.722656 219.101563 C 985.567749 214.03125 985.356445 207.165283 984.088867 198.503418 C 983.877563 197.024536 983.666382 195.440063 983.455078 193.75 C 990.215576 183.609375 1003.20813 179.489746 1022.433105 181.391113 C 1024.968262 181.602417 1027.609009 181.919312 1030.355469 182.341797 C 1043.876343 184.03186 1054.33374 182.869995 1061.728027 178.855957 C 1065.319458 176.95459 1068.382813 174.313843 1070.917969 170.933594 C 1079.36853 162.483032 1083.276855 152.342529 1082.643066 140.511719 C 1082.431763 139.666626 1082.326172 138.821655 1082.326172 137.976563 C 1072.819336 126.145752 1053.805786 120.230469 1025.285156 120.230469 L 997.398438 117.695313 C 992.961914 116.639038 988.314209 113.681396 983.455078 108.822266 C 980.919922 98.047852 980.074829 89.703003 980.919922 83.787598 C 981.342407 80.618652 982.1875 77.977905 983.455078 75.865234 C 967.821533 56.428955 953.033325 47.133423 939.089844 47.978516 C 936.554688 47.978516 932.751953 48.823608 927.681641 50.513672 C 918.385986 62.555664 913.738281 74.808838 913.738281 87.273438 C 913.738281 112.202637 902.752686 125.300781 880.78125 126.568359 L 826.275391 127.835938 L 807.261719 134.173828 C 785.290283 134.173828 775.360962 116.850464 777.473633 82.203125 C 777.684875 80.090454 777.896179 77.977905 778.107422 75.865234 L 759.09375 50.513672 C 757.403625 51.358765 754.340332 50.724976 749.903809 48.612305 C 746.52356 46.922241 742.826538 44.598267 738.8125 41.640625 C 732.052063 36.570313 726.348022 35.830933 721.700195 39.422363 L 717.897461 43.225098 C 717.263672 44.281372 716.629883 45.443359 715.996094 46.710938 C 711.770813 48.823608 710.08075 51.78125 710.925781 55.583984 C 710.925781 56.640259 712.615845 58.75293 715.996094 61.921875 C 705.855408 68.259766 702.052734 82.203003 704.587891 103.751953 L 704.587891 122.765625 C 699.095032 130.371094 687.475647 133.856934 669.729492 133.223145 L 665.292969 132.90625 C 657.687439 131.216187 650.715881 131.004883 644.37793 132.272461 C 642.476563 132.90625 640.575195 133.540039 638.673828 134.173828 L 613.322266 162.060547 C 612.477234 164.595703 611.209656 167.553345 609.519531 170.933594 C 615.434937 182.764404 629.695007 187.940308 652.300293 186.461426 C 653.990417 186.461426 655.786133 186.355835 657.6875 186.144531 C 664.447937 185.299438 670.468872 184.982544 675.750488 185.193848 C 678.496948 185.405151 680.926392 185.722046 683.039063 186.144531 Z M 759.09375 508.109375 C 758.882507 507.898132 748.530701 506.208008 728.038086 503.039063 C 725.714172 502.616516 723.39032 502.194031 721.066406 501.771484 L 703.320313 495.433594 C 697.616211 489.729492 694.236023 482.969116 693.179688 475.152344 C 688.954407 465.85675 689.271301 458.885132 694.130371 454.237305 C 696.665527 451.702148 700.573853 449.800781 705.855469 448.533203 C 726.348083 443.462891 738.178711 438.815125 741.347656 434.589844 L 784.445313 438.392578 C 793.31842 440.927734 797.121094 445.997986 795.853516 453.603516 C 796.698547 465.434326 795.325378 475.363586 791.733887 483.391602 C 789.83252 487.616882 787.403015 491.208313 784.445313 494.166016 C 777.262329 501.348999 768.81189 505.996704 759.09375 508.109375 Z M 913.738281 438.392578 C 916.695923 437.758789 929.794189 439.448853 953.033203 443.462891 C 962.328857 445.153015 970.251099 445.047363 976.800293 443.145996 C 980.391724 442.089661 983.877563 440.505249 987.257813 438.392578 C 988.102905 444.307983 986.729614 452.018982 983.138184 461.525879 C 981.659302 465.75116 979.652344 470.293274 977.117188 475.152344 L 972.046875 486.560547 L 913.738281 509.376953 C 908.667969 510.221985 903.597656 510.433289 898.527344 510.010742 C 894.724609 509.7995 891.344421 509.16571 888.386719 508.109375 C 870.006714 497.757446 861.978821 487.722534 864.302734 478.004395 C 864.725281 477.159363 865.147766 476.208679 865.570313 475.152344 C 865.570313 460.363831 873.598206 451.068359 889.654297 447.265625 Z M 807.261719 182.341797 L 892.189453 184.876953 L 902.013184 186.144531 L 902.330078 186.144531 C 904.020203 197.975342 900.217468 208.327148 890.921875 217.200195 C 885.851563 222.059326 879.091187 226.495728 870.640625 230.509766 L 844.021484 244.453125 C 841.486328 242.763062 835.465393 242.234863 825.958496 242.868652 L 804.726563 245.720703 L 784.445313 244.453125 L 773.037109 236.847656 L 770.818848 233.361816 L 770.501953 233.044922 C 776.417358 229.453491 781.910156 219.312866 786.980469 202.623047 C 789.515625 191.637329 795.53656 184.982544 805.043457 182.658691 C 805.677246 182.447388 806.416687 182.341797 807.261719 182.341797 Z M 415.580078 1043.027344 C 399.946533 1027.393799 391.496094 999.507324 390.228516 959.367188 C 388.960938 932.325378 386.425812 912.466858 382.623047 899.791016 C 362.341705 874.439331 356.003876 850.355591 363.609375 827.539063 C 363.609375 826.482727 364.771301 823.102539 367.095215 817.398438 C 367.095215 816.975952 367.200836 816.553345 367.412109 816.130859 C 358.539032 803.455017 352.201202 777.681213 348.398438 738.808594 C 344.595673 704.583801 335.300201 680.077576 320.511719 665.289063 L 319.244141 642.472656 C 320.300476 639.514954 324.103149 637.402344 330.652344 636.134766 C 329.807281 620.923767 331.708649 597.156921 336.356445 564.833496 C 338.891602 547.932373 342.060516 529.024536 345.863281 508.109375 C 350.933624 482.75769 353.46875 462.054138 353.46875 445.998047 C 356.215179 428.674377 367.62326 385.999695 387.693359 317.972656 C 398.467834 285.437988 405.228149 255.86145 407.974609 229.242188 C 406.495789 221.636719 400.157959 199.243042 388.960938 162.060547 C 385.158173 148.962158 383.045563 140.934204 382.623047 137.976563 C 377.130188 133.751221 365.722107 116.850464 348.398438 87.273438 C 334.455017 65.724487 319.666748 51.358765 304.033203 44.175781 C 300.652985 42.908203 293.892639 41.21814 283.751953 39.105469 C 266.005768 52.203857 259.562317 66.780884 264.421387 82.836914 C 265.900238 87.907227 268.540985 93.188721 272.34375 98.681641 L 301.498047 136.708984 C 307.835968 146.849609 310.371094 156.990234 309.103516 167.130859 C 326.849701 186.989624 333.504425 220.685791 329.067871 268.220215 C 328.222809 276.88208 327.060883 285.860596 325.582031 295.15625 C 322.201813 311.001038 320.511719 321.986633 320.511719 328.113281 C 309.526001 342.901794 301.498077 369.098145 296.427734 406.703125 C 292.413727 430.575989 286.920929 448.321899 279.949219 459.941406 C 287.554718 473.884827 285.019592 490.363159 272.34375 509.376953 C 262.203064 524.587952 258.717255 537.474854 261.88623 548.038086 C 262.731293 550.784546 264.104492 553.530884 266.005859 556.277344 C 266.850922 557.967468 268.963531 560.502563 272.34375 563.882813 C 263.893188 580.783936 260.829895 603.811401 263.153809 632.96582 L 266.956543 661.803223 C 267.801605 666.662292 268.752258 671.626953 269.808594 676.697266 C 277.414093 711.978394 280.794281 737.012756 279.949219 751.80127 L 279.949219 754.019531 C 282.484375 764.160217 288.822205 802.187195 298.962891 868.101563 C 300.019226 878.664795 302.131805 890.495361 305.300781 903.59375 C 298.96286 927.677856 305.30069 958.099426 324.314453 994.859375 C 338.68042 1023.591309 345.863281 1045.5625 345.863281 1060.773438 C 349.2435 1070.702881 350.405457 1079.364502 349.349121 1086.758789 C 349.137848 1088.237671 348.820953 1089.716431 348.398438 1091.195313 C 345.863281 1099.012085 339.947968 1104.927368 330.652344 1108.941406 L 333.1875 1127.955078 C 335.088867 1130.912842 338.046539 1133.025391 342.060547 1134.292969 C 344.173187 1134.292969 346.708313 1130.490234 349.666016 1122.884766 C 350.511078 1120.560913 351.884277 1119.504517 353.785645 1119.71582 C 354.419434 1119.71582 355.158844 1119.927124 356.003906 1120.349609 C 377.764099 1154.151855 392.552368 1180.770752 400.369141 1200.207031 C 409.242249 1202.742188 417.270142 1203.692871 424.453125 1203.059082 C 425.298157 1203.059082 426.14325 1202.953491 426.988281 1202.742188 C 434.805054 1201.474609 440.720337 1198.094482 444.734375 1192.601563 C 448.114624 1189.221313 449.170898 1184.151123 447.90332 1177.390625 C 447.269531 1173.376587 445.79071 1169.151367 443.466797 1164.714844 C 441.776672 1157.954346 440.931641 1154.151733 440.931641 1153.306641 C 443.466797 1143.166016 441.987976 1130.595947 436.495117 1115.596191 C 434.171204 1109.046997 431.002319 1101.758545 426.988281 1093.730469 C 417.692688 1076.40686 413.678711 1060.773438 414.946289 1046.830078 C 415.157532 1045.5625 415.368835 1044.294922 415.580078 1043.027344 Z M 426.988281 331.916016 C 439.664124 340.366577 454.346741 342.056641 471.036621 336.986328 C 479.487183 334.451172 488.465759 330.225952 497.972656 324.310547 C 505.578186 319.240234 511.070923 315.860046 514.451172 314.169922 C 525.014404 307.620728 530.929688 294.522583 532.197266 274.875 C 533.464844 264.734375 536 257.128906 539.802734 252.058594 L 514.451172 156.990234 L 525.859375 149.384766 L 499.240234 97.414063 C 488.465759 80.512939 473.67749 72.0625 454.875 72.0625 C 444.734314 77.132813 440.086609 92.132324 440.931641 117.061523 C 440.931641 118.117798 440.931641 119.174194 440.931641 120.230469 L 440.931641 130.371094 C 457.410217 144.314575 465.015625 173.468506 463.748047 217.833984 L 462.480469 244.453125 C 435.43866 277.621582 423.39679 305.402405 426.354492 327.796387 Z M 268.541016 277.410156 C 265.160797 271.917236 262.203125 252.903809 259.667969 220.369141 C 258.400391 196.285034 250.794983 180.017944 236.851563 171.567383 C 236.429047 171.356079 236.0065 171.144897 235.583984 170.933594 C 225.020782 160.370361 215.302765 144.314575 206.429688 122.765625 C 198.824188 119.385376 190.584991 118.540405 181.711914 120.230469 C 176.007782 121.286743 169.881226 123.399414 163.332031 126.568359 L 151.923828 134.173828 C 149.388672 142.62439 150.656219 152.764893 155.726563 164.595703 L 163.015137 178.222168 L 165.867188 182.341797 C 171.993835 192.27124 175.796539 200.72168 177.275391 207.693359 C 187.416077 233.890137 188.049835 259.135742 179.176758 283.431152 C 175.16275 294.839355 169.036163 306.353149 160.796875 317.972656 C 156.571594 323.042969 148.543671 331.493408 136.712891 343.324219 C 124.882095 343.324219 115.164093 352.197205 107.558594 369.943359 L 99.953125 387.689453 C 99.953125 395.928772 106.71347 401.421509 120.234375 404.167969 C 131.431366 405.435547 138.191727 408.393188 140.515625 413.041016 C 182.134644 409.238281 216.781433 380.929321 244.457031 328.113281 Z M 466.283203 705.851563 C 467.128235 702.471313 467.339539 693.387146 466.916992 678.598633 C 466.70575 667.824158 466.07196 654.937256 465.015625 639.9375 C 465.015625 619.444885 467.973267 605.079163 473.888672 596.839844 C 471.353516 591.769531 471.776001 585.959839 475.15625 579.410645 C 476.846375 575.819153 479.38147 571.910828 482.761719 567.685547 C 486.987 560.502563 488.360168 554.270386 486.881348 548.98877 C 486.670105 547.509949 486.141907 546.136719 485.296875 544.869141 C 484.029297 530.92572 476.423889 520.785217 462.480469 514.447266 C 456.565063 511.067017 450.755371 511.383911 445.05127 515.397949 C 442.30481 517.299316 439.664063 519.940063 437.128906 523.320313 C 415.157471 553.953613 406.073242 584.058289 409.875977 613.635254 C 410.298523 617.226746 410.932312 620.923828 411.777344 624.726563 C 411.777344 625.782898 412.93927 629.163086 415.263184 634.867188 C 415.263184 635.289734 415.368835 635.712219 415.580078 636.134766 C 414.735046 638.669922 414.629395 642.472656 415.263184 647.542969 L 418.115234 662.753906 C 418.960266 665.289063 418.749023 667.718567 417.481445 670.04248 C 417.058899 671.098816 416.42511 672.0495 415.580078 672.894531 C 410.509766 715.147339 409.875977 755.075684 413.678711 792.680664 C 415.791382 811.905701 418.960266 830.2854 423.185547 847.820313 C 429.312195 872.749512 439.875244 902.325989 454.875 936.550781 C 458.043945 941.198608 465.226807 959.789551 476.423828 992.324219 C 486.141968 1020.422363 502.6203 1034.788086 525.859375 1035.421875 L 553.746094 1016.408203 C 556.070007 1013.027954 557.760071 1009.647827 558.816406 1006.267578 C 545.718018 991.901611 533.042358 964.437744 520.789063 923.875 C 512.338501 901.269775 505.15564 886.05896 499.240234 878.242188 C 489.099548 856.481995 481.494141 819.300049 476.423828 766.695313 C 473.466125 737.752136 470.085938 717.471069 466.283203 705.851563 Z M 206.429688 665.289063 C 211.922546 659.796204 215.302734 645.007935 216.570313 620.923828 C 217.837891 604.867737 222.908173 593.03717 231.78125 585.431641 C 225.865845 580.572571 223.647614 574.445984 225.126465 567.051758 C 225.337738 565.361633 225.865875 563.460327 226.710938 561.347656 L 231.147461 556.277344 L 231.78125 556.277344 L 221.640625 528.390625 C 217.204071 525.010376 212.13382 523.320313 206.429688 523.320313 C 173.472504 527.123047 154.459015 548.249146 149.388672 586.699219 L 141.783203 667.824219 L 132.910156 690.640625 C 137.135437 705.006592 140.51561 737.540771 143.050781 788.244141 C 144.318359 811.271912 147.276031 829.017822 151.923828 841.482422 C 155.092804 847.60907 157.205383 859.862183 158.261719 878.242188 L 162.064453 895.988281 C 166.289734 912.889404 170.937469 928.945251 176.007813 944.15625 C 178.542969 955.564514 179.176758 964.331848 177.90918 970.458496 C 177.697906 971.303589 177.486664 972.254211 177.275391 973.310547 C 183.190796 1006.479004 192.908783 1041.970825 206.429688 1079.787109 C 227.556091 1084.012451 241.816193 1085.174316 249.210449 1083.272949 C 251.32309 1082.850464 253.118805 1082.110962 254.597656 1081.054688 C 260.724304 1078.096924 265.37204 1073.871826 268.541016 1068.378906 C 272.766296 1052.322876 272.97757 1034.471313 269.174805 1014.82373 C 267.273438 1004.049255 264.104523 992.746826 259.667969 980.916016 C 253.963837 966.127563 245.935913 951.339233 235.583984 936.550781 L 206.429688 754.019531 C 203.894531 733.738159 203.366364 710.921997 204.845215 685.570313 C 205.267731 679.232361 205.795898 672.472046 206.429688 665.289063 Z M 1119.085938 713.457031 C 1101.12854 712.189453 1080.002441 701.203857 1055.707031 680.5 L 1034.158203 665.289063 C 1028.876587 665.289063 1017.468506 658.528687 999.933594 645.007813 C 991.483032 637.402283 983.243896 634.761536 975.21582 637.085449 L 968.87793 639.9375 L 964.441406 643.740234 C 947.962769 652.613342 942.892578 664.021423 949.230469 677.964844 C 951.131836 682.612671 954.93457 688.527954 960.638672 695.710938 C 967.821655 698.66864 990.215332 713.879395 1027.820313 741.34375 C 1044.932739 753.174561 1060.56604 762.047485 1074.720703 767.962891 C 1092.255615 773.033203 1106.410156 774.300781 1117.18457 771.765625 C 1122.254883 770.498047 1126.691406 768.385437 1130.494141 765.427734 C 1131.339233 764.582703 1133.451782 761.625 1136.832031 756.554688 C 1141.057373 750.639282 1140.95166 743.562073 1136.515137 735.322754 C 1134.402466 731.52002 1131.550415 727.611694 1127.958984 723.597656 C 1122.888672 718.527344 1119.93103 715.147156 1119.085938 713.457031 Z M 723.601563 665.289063 C 702.263916 649.232971 688.743164 639.515015 683.039063 636.134766 L 601.914063 717.259766 C 600.646484 720.851257 591.351013 728.034119 574.027344 738.808594 C 558.816345 747.470398 552.901001 758.561646 556.28125 772.08252 L 558.816406 779.371094 C 557.971375 783.596375 559.344543 786.976563 562.936035 789.511719 C 565.048706 791.201843 567.900696 792.469421 571.492188 793.314453 C 574.027344 794.159485 578.252563 794.582031 584.167969 794.582031 C 660.434326 756.977051 706.911682 713.879822 723.601563 665.289063 Z M 1034.158203 1126.6875 C 1026.552734 1139.363281 1014.299561 1145.701172 997.398438 1145.701172 C 990.215454 1131.335205 976.483521 1125.419922 956.202148 1127.955078 C 953.878296 1128.377563 951.554321 1128.800171 949.230469 1129.222656 L 920.076172 1131.757813 C 914.160767 1131.757813 909.513062 1130.067749 906.132813 1126.6875 C 887.541565 1122.039673 879.830566 1101.441772 882.999512 1064.893066 C 883.422058 1060.667725 883.950195 1056.336914 884.583984 1051.900391 L 888.386719 1021.478516 C 909.090576 1020.210938 922.188721 1016.408203 927.681641 1010.070313 C 934.442139 1013.450562 949.652832 1015.140625 973.314453 1015.140625 C 982.610107 1015.140625 988.102905 1015.985657 989.792969 1017.675781 L 1030.355469 1011.337891 C 1036.05957 1008.591431 1041.129883 1004.366211 1045.566406 998.662109 C 1043.03125 977.535706 1026.975464 965.705078 997.398438 963.169922 L 960.638672 959.367188 C 956.835938 966.972656 945.427856 969.507813 926.414063 966.972656 C 918.174805 966.127563 911.097534 966.338867 905.182129 967.606445 C 902.858215 968.028931 900.640015 968.66272 898.527344 969.507813 C 883.316345 965.071289 876.978516 952.923767 879.513672 933.064941 C 879.724915 930.529785 880.147461 927.889038 880.78125 925.142578 C 885.851563 909.93158 888.386719 900.213562 888.386719 895.988281 C 885.851563 895.354492 880.675659 890.495483 872.858887 881.411133 C 869.901184 878.030884 867.47168 875.284546 865.570313 873.171875 C 858.598572 863.876221 849.19751 860.179199 837.366699 862.080566 L 832.613281 863.03125 C 818.669861 873.171936 811.064453 893.453003 809.796875 923.875 C 809.796875 933.170654 808.951843 941.198547 807.261719 947.958984 C 795.008423 958.944702 770.502136 964.4375 733.742188 964.4375 L 698.25 966.972656 L 683.039063 973.310547 C 680.503906 968.240234 672.898499 966.972656 660.222656 969.507813 L 634.871094 978.380859 C 631.490845 980.916016 630.012024 984.824341 630.43457 990.105957 C 630.43457 991.373535 630.645813 992.958008 631.068359 994.859375 C 639.730164 1021.901184 658.954956 1034.26001 688.743164 1031.936035 C 690.221985 1031.936035 691.700867 1031.830444 693.179688 1031.619141 L 756.558594 1024.013672 C 763.319031 1024.013672 767.966797 1024.436157 770.501953 1025.28125 C 787.614319 1027.816406 799.444946 1042.182129 805.994141 1068.378906 C 810.219421 1085.280029 813.177063 1094.998047 814.867188 1097.533203 C 800.712524 1110.420288 775.361206 1118.870728 738.8125 1122.884766 L 702.052734 1129.222656 L 696.982422 1130.490234 C 665.081543 1124.574829 645.223022 1121.617188 637.40625 1121.617188 L 618.392578 1126.6875 L 609.519531 1134.292969 C 615.857483 1159.644653 634.025879 1172.320313 664.025391 1172.320313 C 667.616882 1172.320313 686.207825 1172.742798 719.798828 1173.587891 C 726.559265 1175.277954 731.207031 1176.96814 733.742188 1178.658203 L 804.726563 1179.925781 L 814.550293 1178.658203 L 814.867188 1178.658203 C 826.064209 1183.728516 842.859436 1185.418579 865.253418 1183.728516 C 872.013855 1183.094727 879.302368 1182.249634 887.119141 1181.193359 C 901.273804 1178.658203 913.421387 1177.918823 923.562012 1178.975098 C 929.477417 1179.608887 934.65332 1180.770874 939.089844 1182.460938 C 949.230469 1177.390625 964.758179 1175.594849 985.67334 1177.07373 C 995.391479 1177.70752 1006.482666 1179.080688 1018.947266 1181.193359 C 1042.608887 1185.418701 1062.678589 1184.573608 1079.157227 1178.658203 C 1086.973999 1176.123047 1093.945557 1172.320313 1100.072266 1167.25 C 1100.917358 1157.320557 1096.692139 1149.609619 1087.396484 1144.116699 L 1077.255859 1139.680176 C 1075.565796 1139.046387 1073.87561 1138.518188 1072.185547 1138.095703 L 1037.960938 1129.222656 Z"/>
</svg>
