<?xml version="1.0" encoding="UTF-8"?>
<!-- Generated by Pixelmator Pro 4.0 -->
<svg width="1240" height="1240" viewBox="0 0 1240 1240" xmlns="http://www.w3.org/2000/svg">
    <path id="path1" fill="none" stroke="oklch(0.922 0 0)" stroke-width="48" stroke-linecap="round"
        stroke-linejoin="round"
        d="M 622.15033 666.158081 L 623.008789 671.734192 C 638.994019 775.476563 466.691315 733.182983 558.808167 595.17572 C 580.888428 562.095337 682.979126 566.173828 706.548401 601.210632 C 760.783508 681.840759 692.268799 805.436523 607.816711 817.859863 C 456.484436 840.121216 427.820343 769.52063 434.019653 622.667542 C 440.114105 478.263794 585.211914 449.913269 692.043457 478.444763 C 829.431641 515.153503 834.899536 753.848999 756.769287 850.191589 C 741.96106 868.449951 696.947205 903.283691 644.557983 913.779175 C 592.215332 924.265259 532.502258 910.423828 506.694763 904.777222 C 383.881104 877.906067 332.583893 737.712402 334.237213 610.807129 C 335.179749 538.471985 363.373535 468.94574 420.516479 431.567017 C 521.517639 365.498352 602.366272 333.479065 721.942139 367.132996 C 853.882874 404.27002 905.610596 511.442444 920.367065 635.583496 C 930.92627 724.407166 901.923706 823.622986 838.568176 896.746826 C 773.679871 971.64032 643.462402 1019.924255 550.174683 1019.380005 C 456.856812 1018.836304 322.469971 951.786743 283.803986 855.869019 C 257.070801 789.55249 225.687592 691.729492 229.271378 618.551086 C 232.547882 551.647766 240.162506 447.783325 286.950104 400.53656 C 356.064941 330.742065 414.843292 280.00061 508.424896 255.715698 C 664.046021 215.332397 803.784424 215.234009 920.82019 340.992554 C 1023.446106 451.269836 1033.739746 546.983154 1017.461426 703.59668 C 1009.899292 776.346924 984.463562 896.776428 946.476929 959.649658 C 902.997131 1031.614746 789.415344 1092.420654 665.395874 1109.899658 C 544.701111 1126.910034 413.7854 1102.035034 352.007538 1067.401611 C 181.771317 971.966187 104.762695 767.265442 116.85791 567.761841 C 123.662201 455.521851 154.09668 353.992432 232.52655 277.756531 C 321.557068 191.215942 346.36911 171.19043 457.888763 132.560303 C 580.202881 90.190918 688.393982 94.734863 814.188477 137.333008 C 911.862732 170.409546 987.415222 265.930115 1049.903076 350.825195 C 1122.710083 449.74707 1131.065186 665.843079 1107.598022 783.169189 C 1094.115479 850.586914 1069.872559 941.982056 1036.674072 1003.911743 C 994.528015 1082.532471 934.834778 1127.144043 855.347412 1160.181152 C 740.117676 1208.073608 604.012634 1228.171143 504.578552 1218.72937 C 363.685883 1205.350952 242.919586 1150.427002 153.500214 1042.181396 C 77.064804 949.65332 36.982563 827.430298 23.725487 704.848572 C 19.269106 663.642578 10.150613 594.036194 17.063091 531.11969 C 30.238178 411.201782 73.929176 287.488831 124.548073 233.812195 C 215.876999 136.966309 316.917145 75.670044 436.76358 41.999268 C 573.052246 3.703735 816.76532 6.971436 935.761169 100.159668 C 1054.644287 193.26001 1169.104492 349.875854 1203.516846 508.408325 C 1229.803711 629.514038 1230.720825 714.114807 1206.663086 833.15918 C 1192.117676 905.133789 1186.887817 914.905518 1148.984375 977.366821" />
</svg>