<?xml version="1.0" encoding="UTF-8"?>
<!-- Generated by Pixelmator Pro 4.0 -->
<svg width="1240" height="1240" viewBox="0 0 1240 1240" xmlns="http://www.w3.org/2000/svg">
    <g id="g1">
        <path id="path1" fill="oklch(0.922 0 0)" fill-rule="evenodd" stroke="none"
            d="M 1040 890 C 1040 807.157288 972.842712 740 890 740 C 807.157288 740 740 807.157288 740 890 C 740 972.842712 807.157288 1040 890 1040 C 972.842712 1040 1040 972.842712 1040 890 Z" />
        <path id="path2" fill="oklch(0.922 0 0)" fill-rule="evenodd" stroke="none"
            d="M 817.056274 817.056274 L -521.369812 458.426086 L 458.426086 -521.369751 Z" />
        <path id="path3" fill="none" stroke="oklch(0.922 0 0)" stroke-width="20"
            stroke-linecap="round"
            stroke-linejoin="round"
            d="M 332.685455 1079.598389 L 1080.198364 332.085449 L 332.685425 -51.772461 L -51.172523 332.085449 Z" />
        <path id="path4" fill="none" stroke="oklch(0.922 0 0)" stroke-width="40"
            stroke-linecap="round"
            stroke-linejoin="round"
            d="M 1200 950 C 1200 811.928833 1088.071167 700 950 700 C 811.928833 700 700 811.928833 700 950 C 700 1088.071167 811.928833 1200 950 1200 C 1088.071167 1200 1200 1088.071167 1200 950 Z" />
    </g>
    <g id="g2" />
</svg>