<?xml version="1.0" encoding="UTF-8"?>
<!-- Generated by Pixelmator Pro 4.0 -->
<!-- 使用 chrome AI 改为镂空 -->
<svg width="1240" height="1240" viewBox="0 0 1240 1240" xmlns="http://www.w3.org/2000/svg">
    <defs>
        <mask id="hollowMask">
            <!-- 1. 白色背景层：代表要保留颜色的区域 -->
            <rect width="1240" height="1240" fill="white" />

            <!-- 2. 黑色抠图层：这些路径所在的位置会变成透明 -->
            <g>
                <!-- 原本的实心路径 -->
                <path fill="black" fill-rule="evenodd"
                    d="M 1040 890 C 1040 807.157288 972.842712 740 890 740 C 807.157288 740 740 807.157288 740 890 C 740 972.842712 807.157288 1040 890 1040 C 972.842712 1040 1040 972.842712 1040 890 Z" />
                <path fill="black" fill-rule="evenodd"
                    d="M 817.056274 817.056274 L -521.369812 458.426086 L 458.426086 -521.369751 Z" />

                <!-- 原本的描边路径：这里改用 stroke="black" 来抠除线条部分 -->
                <path fill="none" stroke="black" stroke-width="20" stroke-linecap="round"
                    stroke-linejoin="round"
                    d="M 332.685455 1079.598389 L 1080.198364 332.085449 L 332.685425 -51.772461 L -51.172523 332.085449 Z" />
                <path fill="none" stroke="black" stroke-width="40" stroke-linecap="round"
                    stroke-linejoin="round"
                    d="M 1200 950 C 1200 811.928833 1088.071167 700 950 700 C 811.928833 700 700 811.928833 700 950 C 700 1088.071167 811.928833 1200 950 1200 C 1088.071167 1200 1200 1088.071167 1200 950 Z" />
            </g>
        </mask>
    </defs>

    <!-- 3. 最终显示的形状：应用遮罩，颜色设为 currentColor 以便通过 React/CSS 修改 -->
    <rect width="1240" height="1240" fill="oklch(0.922 0 0)" mask="url(#hollowMask)" />
</svg>