<?xml version="1.0" encoding="UTF-8"?>
<!-- Generated by Pixelmator Pro 4.0 -->
<svg width="1000" height="1000" viewBox="0 0 1000 1000" xmlns="http://www.w3.org/2000/svg">
    <g id="g1">
        <g id="g2">
            <g id="g3">
                <g id="g4">
                    <path id="--11" fill="none" stroke="oklch(0.922 0 0)" stroke-width="48"
                        stroke-linecap="round" stroke-linejoin="round"
                        d="M 100 328.571411 L 120.582832 327.101257 L 141.424011 325.61261 L 162.526184 324.105286 L 183.892044 322.579163 L 205.524231 321.033997 L 227.42543 319.469604 L 249.598282 317.885864 L 272.045441 316.282471 L 294.769623 314.659302 L 317.773438 313.016174 L 341.05957 311.352905 L 364.630676 309.66925 L 388.489441 307.965027 L 412.638489 306.240112 L 437.080536 304.494263 L 461.818176 302.727295 L 486.854126 300.939026 L 512.19104 299.129211 L 537.831604 297.297729 L 563.778381 295.444397 L 590.03418 293.56897 L 616.601563 291.671326 L 643.483215 289.751221 L 670.681824 287.808472 L 698.200012 285.842896 L 726.040466 283.854248 L 754.205872 281.842468 L 782.698853 279.807251 L 811.522095 277.748413 L 840.678284 275.665833 L 870.169983 273.559326 L 900 271.428589" />
                    <path id="--12" fill="none" stroke="oklch(0.922 0 0)" stroke-width="48"
                        stroke-linecap="round" stroke-linejoin="round"
                        d="M 100 500 L 120.582832 500 L 141.424011 500 L 162.526184 500 L 183.892044 500 L 205.524231 500 L 227.42543 500 L 249.598282 500 L 272.045441 500 L 294.769623 500 L 317.773438 500 L 341.05957 500 L 364.630676 500 L 388.489441 500 L 412.638489 500 L 437.080536 500 L 461.818176 500 L 486.854126 500 L 512.19104 500 L 537.831604 500 L 563.778381 500 L 590.03418 500 L 616.601563 500 L 643.483215 500 L 670.681824 500 L 698.200012 500 L 726.040466 500 L 754.205872 500 L 782.698853 500 L 811.522095 500 L 840.678284 500 L 870.169983 500 L 900 500" />
                    <path id="--14" fill="none" stroke="oklch(0.922 0 0)" stroke-width="48"
                        stroke-linecap="round" stroke-linejoin="round"
                        d="M 100 671.428589 L 120.582832 672.898804 L 141.424011 674.387451 L 162.526184 675.894714 L 183.892044 677.420837 L 205.524231 678.966003 L 227.42543 680.530396 L 249.598282 682.114136 L 272.045441 683.717529 L 294.769623 685.340698 L 317.773438 686.983765 L 341.05957 688.647095 L 364.630676 690.33075 L 388.489441 692.034912 L 412.638489 693.759888 L 437.080536 695.505737 L 461.818176 697.272705 L 486.854126 699.061035 L 512.19104 700.870789 L 537.831604 702.702271 L 563.778381 704.555603 L 590.03418 706.43103 L 616.601563 708.328674 L 643.483215 710.248779 L 670.681824 712.191528 L 698.200012 714.157104 L 726.040466 716.145752 L 754.205872 718.157593 L 782.698853 720.192749 L 811.522095 722.251587 L 840.678284 724.334106 L 870.169983 726.440674 L 900 728.571411" />
                </g>
                <g id="-">
                    <path id="path1" fill="none" stroke="oklch(0.922 0 0)" stroke-width="48"
                        stroke-linecap="round" stroke-linejoin="round"
                        d="M 271.743835 867.238464 L 272.045441 499.931854 L 272.34726 132.36853" />
                    <path id="path2" fill="none" stroke="oklch(0.922 0 0)" stroke-width="48"
                        stroke-linecap="round" stroke-linejoin="round"
                        d="M 461.485748 894.497803 L 461.818176 500 L 462.150665 105.407166" />
                    <path id="path3" fill="none" stroke="oklch(0.922 0 0)" stroke-width="48"
                        stroke-linecap="round" stroke-linejoin="round"
                        d="M 670.316345 924.507874 L 670.681824 500.116577 L 671.047241 75.742004" />
                </g>
            </g>
            <path id="path4" fill="none" stroke="oklch(0.922 0 0)" stroke-width="48"
                stroke-linecap="round"
                stroke-linejoin="round"
                d="M 875.570129 947.867004 C 883.230957 944.851196 889.575073 939.684265 893.886902 932.93689 C 900 923.357544 900 909.47644 900 881.714294 L 900 118.285706 C 900 90.523499 900 76.642456 893.886902 67.06311 C 889.575073 60.315674 883.230896 55.148743 875.567749 52.131714 C 873.869995 51.464355 872.084595 50.952576 870.169983 50.579651 C 862.924683 49.171448 853.836487 49.751099 840.678284 51.419495 C 835.199036 52.114441 829.018738 52.997375 821.979858 54.00293 L 811.522095 55.496887 L 782.698853 59.614502 L 754.205872 63.684875 L 726.040466 67.708496 L 698.200012 71.68573 L 670.681824 75.616882 L 643.483215 79.502441 L 616.601563 83.342651 L 590.03418 87.138 L 563.778381 90.888794 L 537.831604 94.59552 L 512.19104 98.258423 L 486.854126 101.877991 L 461.818176 105.45459 L 437.080536 108.988525 L 412.638489 112.480225 L 388.489441 115.930115 L 364.630676 119.338501 L 341.05957 122.705811 L 317.773438 126.03241 L 294.769623 129.318665 L 272.045441 132.564941 L 249.598282 135.771667 L 227.42543 138.93927 L 205.524231 142.067993 L 183.892044 145.158325 L 162.526184 148.210571 L 154.89917 149.30011 C 149.802338 150.028259 145.351364 150.664124 141.424011 151.293396 C 132.063812 152.79303 125.656975 154.258179 120.582832 156.845154 C 119.246941 157.52594 118.003036 158.284485 116.821861 159.141968 C 111.510231 162.995422 107.13752 168.17511 104.178185 174.109497 C 100 182.481812 100 192.892639 100 213.714294 L 100 786.285706 C 100 807.107361 100 817.518188 104.178185 825.890503 C 107.13752 831.82489 111.510231 837.004517 116.821861 840.858032 C 118.003036 841.715454 119.246941 842.47406 120.582832 843.154785 C 125.656975 845.741821 132.063812 847.207031 141.424011 848.706604 C 145.351364 849.335938 149.802338 849.971741 154.89917 850.69989 L 162.526184 851.789429 L 183.892044 854.841736 L 205.524231 857.932007 L 227.42543 861.060791 L 249.598282 864.228333 L 272.045441 867.435059 L 294.769623 870.681396 L 317.773438 873.967651 L 341.05957 877.29425 L 364.630676 880.661499 L 388.489441 884.069946 L 412.638489 887.519775 L 437.080536 891.011475 L 461.818176 894.545471 L 486.854126 898.122009 L 512.19104 901.741577 L 537.831604 905.404541 L 563.778381 909.111206 L 590.03418 912.862 L 616.601563 916.657349 L 643.483215 920.49762 L 670.681824 924.383118 L 698.200012 928.31427 L 726.040466 932.291504 L 754.205872 936.315125 L 782.698853 940.385559 L 811.522095 944.503174 L 821.979858 945.997131 C 829.018738 947.002686 835.198975 947.885559 840.678284 948.580505 C 853.835754 950.248779 862.923889 950.828247 870.169983 949.419861 C 872.085449 949.046814 873.871582 948.534729 875.570129 947.867004 Z" />
        </g>
    </g>
</svg>